<svg width="181" height="75" viewBox="0 0 181 75" fill="none" xmlns="http://www.w3.org/2000/svg">
<path d="M17.88 52L10.16 41.32L5.72 45.48V52H3V22.8H5.72V42.56L17.52 31.2H20.52L12 39.72L20.84 52H17.88Z" fill="#624CD2"/>
<path d="M30.776 14.56H34.552L53.432 60H48.696L42.808 45.792H22.392L16.568 60H11.768L30.776 14.56ZM41.784 42.272L32.632 19.808L23.352 42.272H41.784Z" fill="#624CD2"/>
<path d="M77.776 14.56H81.552L100.432 60H95.696L89.808 45.792H69.392L63.568 60H58.768L77.776 14.56ZM88.784 42.272L79.632 19.808L70.352 42.272H88.784Z" fill="#624CD2"/>
<path d="M46.24 50.16L60.2 33.2H46.56V31.16H63.28V33L49.4 49.96H63.24V52H46.24V50.16Z" fill="#624CD2"/>
<path d="M112.88 52L105.16 41.32L100.72 45.48V52H98V22.8H100.72V42.56L112.52 31.2H115.52L107 39.72L115.84 52H112.88ZM126.997 52.4C125.504 52.4 124.117 52.12 122.837 51.56C121.584 50.9733 120.491 50.1867 119.557 49.2C118.651 48.1867 117.944 47.04 117.437 45.76C116.931 44.4533 116.677 43.08 116.677 41.64C116.677 40.1467 116.931 38.76 117.437 37.48C117.944 36.1733 118.664 35.0267 119.597 34.04C120.531 33.0267 121.624 32.24 122.877 31.68C124.157 31.0933 125.544 30.8 127.037 30.8C128.531 30.8 129.904 31.0933 131.157 31.68C132.411 32.24 133.504 33.0267 134.437 34.04C135.371 35.0267 136.091 36.1733 136.597 37.48C137.104 38.76 137.357 40.1467 137.357 41.64C137.357 43.08 137.104 44.4533 136.597 45.76C136.091 47.04 135.371 48.1867 134.437 49.2C133.531 50.1867 132.437 50.9733 131.157 51.56C129.904 52.12 128.517 52.4 126.997 52.4ZM119.437 41.68C119.437 43.2267 119.771 44.64 120.437 45.92C121.131 47.1733 122.051 48.1733 123.197 48.92C124.344 49.64 125.611 50 126.997 50C128.384 50 129.651 49.6267 130.797 48.88C131.944 48.1333 132.864 47.12 133.557 45.84C134.251 44.5333 134.597 43.12 134.597 41.6C134.597 40.0533 134.251 38.64 133.557 37.36C132.864 36.08 131.944 35.0667 130.797 34.32C129.651 33.5733 128.384 33.2 126.997 33.2C125.611 33.2 124.344 33.5867 123.197 34.36C122.077 35.1333 121.171 36.16 120.477 37.44C119.784 38.6933 119.437 40.1067 119.437 41.68ZM147.403 52L138.963 31.16H141.803L148.923 49.28L156.083 31.16H158.763L150.323 52H147.403ZM160.343 46C160.343 44.6933 160.717 43.5733 161.463 42.64C162.21 41.68 163.237 40.9467 164.543 40.44C165.877 39.9067 167.41 39.64 169.143 39.64C170.157 39.64 171.21 39.72 172.303 39.88C173.397 40.04 174.37 40.28 175.223 40.6V38.84C175.223 37.08 174.703 35.68 173.663 34.64C172.623 33.6 171.183 33.08 169.343 33.08C168.223 33.08 167.117 33.2933 166.023 33.72C164.957 34.12 163.837 34.72 162.663 35.52L161.623 33.6C162.983 32.6667 164.317 31.9733 165.623 31.52C166.93 31.04 168.263 30.8 169.623 30.8C172.183 30.8 174.21 31.5333 175.703 33C177.197 34.4667 177.943 36.4933 177.943 39.08V48.72C177.943 49.0933 178.023 49.3733 178.183 49.56C178.343 49.72 178.597 49.8133 178.943 49.84V52C178.65 52.0267 178.397 52.0533 178.183 52.08C177.97 52.1067 177.81 52.1067 177.703 52.08C177.037 52.0533 176.53 51.84 176.183 51.44C175.837 51.04 175.65 50.6133 175.623 50.16L175.583 48.64C174.65 49.84 173.437 50.7733 171.943 51.44C170.45 52.08 168.93 52.4 167.383 52.4C166.05 52.4 164.837 52.12 163.743 51.56C162.677 50.9733 161.837 50.2 161.223 49.24C160.637 48.2533 160.343 47.1733 160.343 46ZM174.303 47.6C174.597 47.2267 174.823 46.8667 174.983 46.52C175.143 46.1733 175.223 45.8667 175.223 45.6V42.56C174.317 42.2133 173.37 41.9467 172.383 41.76C171.423 41.5733 170.45 41.48 169.463 41.48C167.517 41.48 165.943 41.8667 164.743 42.64C163.543 43.4133 162.943 44.4667 162.943 45.8C162.943 46.5733 163.143 47.3067 163.543 48C163.943 48.6667 164.53 49.2267 165.303 49.68C166.077 50.1067 166.983 50.32 168.023 50.32C169.33 50.32 170.543 50.0667 171.663 49.56C172.81 49.0533 173.69 48.4 174.303 47.6Z" fill="#624CD2"/>
</svg>
