<svg width="548" height="159" viewBox="0 0 548 159" fill="none" xmlns="http://www.w3.org/2000/svg">
<path d="M46 63.3599C44.8 63.3599 43.5467 63.1332 42.24 62.6799C40.96 62.2265 39.8133 61.5732 38.8 60.7199C38.5067 60.5065 38.3067 60.2399 38.2 59.9199C38.12 59.5732 38.12 59.2532 38.2 58.9599C38.28 58.6399 38.4267 58.3732 38.64 58.1599C38.88 57.9199 39.16 57.7865 39.48 57.7599C39.8 57.7332 40.1467 57.8532 40.52 58.1199C41.4267 58.8399 42.3467 59.3599 43.28 59.6799C44.2133 59.9999 45.1467 60.1599 46.08 60.1599C47.76 60.1599 49.1867 59.7465 50.36 58.9199C51.5333 58.0665 52.4267 56.8132 53.04 55.1599C53.6533 53.4799 53.96 51.4132 53.96 48.9599V45.3999H54.36C54.2 46.8665 53.76 48.1465 53.04 49.2399C52.32 50.3065 51.3867 51.1332 50.24 51.7199C49.12 52.3065 47.8533 52.5999 46.44 52.5999C44.7867 52.5999 43.32 52.2132 42.04 51.4399C40.7867 50.6665 39.7867 49.6132 39.04 48.2799C38.32 46.9199 37.96 45.3732 37.96 43.6399C37.96 41.8532 38.3467 40.2665 39.12 38.8799C39.8933 37.4932 40.96 36.4132 42.32 35.6399C43.68 34.8399 45.24 34.4399 47 34.4399C49.2667 34.4399 51.1733 34.9865 52.72 36.0799C54.2933 37.1465 55.4933 38.7199 56.32 40.7999C57.1467 42.8532 57.56 45.3332 57.56 48.2399C57.56 50.6932 57.2933 52.8532 56.76 54.7199C56.2533 56.5865 55.4933 58.1599 54.48 59.4399C53.4933 60.7199 52.28 61.6932 50.84 62.3599C49.4267 63.0265 47.8133 63.3599 46 63.3599ZM47.28 49.5199C48.4 49.5199 49.3867 49.2665 50.24 48.7599C51.12 48.2265 51.8 47.5065 52.28 46.5999C52.76 45.6932 53 44.6532 53 43.4799C53 42.2799 52.76 41.2399 52.28 40.3599C51.8 39.4532 51.12 38.7465 50.24 38.2399C49.3867 37.7332 48.4 37.4799 47.28 37.4799C46.1333 37.4799 45.1333 37.7332 44.28 38.2399C43.4267 38.7465 42.7467 39.4532 42.24 40.3599C41.76 41.2399 41.52 42.2799 41.52 43.4799C41.52 44.6532 41.76 45.6932 42.24 46.5999C42.7467 47.5065 43.4267 48.2265 44.28 48.7599C45.1333 49.2665 46.1333 49.5199 47.28 49.5199ZM72.5044 63.3599C71.011 63.3599 69.5044 63.1465 67.9844 62.7199C66.491 62.2665 65.131 61.5865 63.9044 60.6799C63.5577 60.4399 63.3177 60.1599 63.1844 59.8399C63.0777 59.4932 63.0644 59.1599 63.1444 58.8399C63.2244 58.5199 63.3844 58.2532 63.6244 58.0399C63.8644 57.7999 64.1444 57.6665 64.4644 57.6399C64.811 57.6132 65.171 57.7199 65.5444 57.9599C66.611 58.7065 67.7177 59.2665 68.8644 59.6399C70.011 59.9865 71.211 60.1599 72.4644 60.1599C73.7177 60.1599 74.7977 59.9199 75.7044 59.4399C76.611 58.9599 77.3044 58.2932 77.7844 57.4399C78.291 56.5865 78.5444 55.5865 78.5444 54.4399C78.5444 52.6799 78.0244 51.2399 76.9844 50.1199C75.9444 48.9999 74.531 48.4399 72.7444 48.4399C71.651 48.4399 70.6377 48.6399 69.7044 49.0399C68.7977 49.4132 67.9444 50.0532 67.1444 50.9599C66.9577 51.1732 66.7177 51.3599 66.4244 51.5199C66.1577 51.6799 65.851 51.7599 65.5044 51.7599C64.9977 51.7599 64.611 51.6265 64.3444 51.3599C64.0777 51.0665 63.9444 50.6799 63.9444 50.1999V36.4799C63.9444 35.9465 64.091 35.5332 64.3844 35.2399C64.6777 34.9465 65.091 34.7999 65.6244 34.7999H79.1044C79.6377 34.7999 80.051 34.9332 80.3444 35.1999C80.6377 35.4665 80.7844 35.8532 80.7844 36.3599C80.7844 36.8665 80.6377 37.2665 80.3444 37.5599C80.051 37.8265 79.6377 37.9599 79.1044 37.9599H67.5844V48.6399H66.5444C67.2644 47.5732 68.2244 46.7465 69.4244 46.1599C70.651 45.5732 71.9977 45.2799 73.4644 45.2799C75.251 45.2799 76.7844 45.6665 78.0644 46.4399C79.371 47.1865 80.3844 48.2399 81.1044 49.5999C81.8244 50.9332 82.1844 52.4932 82.1844 54.2799C82.1844 56.0399 81.7844 57.6132 80.9844 58.9999C80.211 60.3599 79.1044 61.4265 77.6644 62.1999C76.2244 62.9732 74.5044 63.3599 72.5044 63.3599ZM96.2488 62.9599C96.0354 63.3332 95.7688 63.5732 95.4488 63.6799C95.1554 63.8132 94.8621 63.8399 94.5688 63.7599C94.2754 63.7065 94.0221 63.5599 93.8088 63.3199C93.6221 63.1065 93.5154 62.8399 93.4888 62.5199C93.4621 62.1999 93.5421 61.8532 93.7288 61.4799L109.009 34.9199C109.222 34.5465 109.475 34.2932 109.769 34.1599C110.062 34.0265 110.355 33.9999 110.649 34.0799C110.942 34.1332 111.182 34.2799 111.369 34.5199C111.582 34.7332 111.715 34.9999 111.769 35.3199C111.822 35.6399 111.742 35.9865 111.529 36.3599L96.2488 62.9599ZM92.9688 51.6799C90.8088 51.6799 89.1154 50.9199 87.8888 49.3999C86.6888 47.8799 86.0888 45.7599 86.0888 43.0399C86.0888 41.2265 86.3554 39.6799 86.8888 38.3999C87.4488 37.1199 88.2354 36.1465 89.2487 35.4799C90.2888 34.7865 91.5288 34.4399 92.9688 34.4399C95.1021 34.4399 96.7821 35.1999 98.0088 36.7199C99.2354 38.2399 99.8488 40.3465 99.8488 43.0399C99.8488 44.8532 99.5688 46.4132 99.0088 47.7199C98.4754 48.9999 97.6888 49.9865 96.6488 50.6799C95.6354 51.3465 94.4088 51.6799 92.9688 51.6799ZM92.9688 49.0799C93.7688 49.0799 94.4488 48.8665 95.0088 48.4399C95.5688 47.9865 95.9954 47.3199 96.2888 46.4399C96.5821 45.5332 96.7288 44.3999 96.7288 43.0399C96.7288 41.0399 96.3954 39.5465 95.7287 38.5599C95.0621 37.5465 94.1421 37.0399 92.9688 37.0399C92.1954 37.0399 91.5154 37.2665 90.9288 37.7199C90.3688 38.1465 89.9288 38.8132 89.6088 39.7199C89.3154 40.5999 89.1688 41.7065 89.1688 43.0399C89.1688 45.0665 89.5021 46.5865 90.1688 47.5999C90.8621 48.5865 91.7954 49.0799 92.9688 49.0799ZM112.329 63.3599C110.169 63.3599 108.475 62.5999 107.249 61.0799C106.049 59.5599 105.449 57.4399 105.449 54.7199C105.449 52.9065 105.715 51.3599 106.249 50.0799C106.809 48.7999 107.595 47.8265 108.609 47.1599C109.649 46.4665 110.889 46.1199 112.329 46.1199C114.462 46.1199 116.142 46.8799 117.369 48.3999C118.595 49.9199 119.209 52.0265 119.209 54.7199C119.209 56.5332 118.929 58.0932 118.369 59.3999C117.835 60.6799 117.049 61.6665 116.009 62.3599C114.995 63.0265 113.769 63.3599 112.329 63.3599ZM112.329 60.7599C113.129 60.7599 113.809 60.5465 114.369 60.1199C114.929 59.6665 115.355 58.9999 115.649 58.1199C115.942 57.2132 116.089 56.0799 116.089 54.7199C116.089 52.7199 115.755 51.2265 115.089 50.2399C114.422 49.2265 113.502 48.7199 112.329 48.7199C111.555 48.7199 110.875 48.9465 110.289 49.3999C109.729 49.8265 109.289 50.4932 108.969 51.3999C108.675 52.2799 108.529 53.3865 108.529 54.7199C108.529 56.7465 108.862 58.2665 109.529 59.2799C110.222 60.2665 111.155 60.7599 112.329 60.7599Z" fill="black"/>
<path d="M127 49.9999C127 44.4999 122.344 25.5201 113.946 16.3099C105.547 7.09959 94.011 1.35843 81.5993 0.211862C69.1875 -0.934704 56.7951 2.59601 46.8513 10.1118C36.9075 17.6277 30.1295 28.5866 27.8461 40.8403C25.5627 53.094 27.9385 65.7587 34.5078 76.3516C41.0771 86.9446 51.3661 94.7019 63.3578 98.1028C75.3495 101.504 88.179 100.303 99.3314 94.7359C110.484 89.1688 122.788 70.6625 123.644 68.009C124.5 65.3555 119.633 60.9999 116.771 65.3555C113.91 69.7111 105.55 83.3976 96.041 88.1444C86.5319 92.8911 75.5927 93.915 65.3679 91.0152C55.1431 88.1154 46.3701 81.5011 40.7687 72.4689C35.1674 63.4367 33.1416 52.6381 35.0886 42.1899C37.0356 31.7417 42.8148 22.3975 51.2935 15.989C59.7721 9.58061 70.3386 6.57012 80.9216 7.54775C91.5046 8.52537 101.341 13.4206 108.502 21.2738C115.663 29.127 119.633 44.9999 119.633 49.9999C119.633 54.9999 127 55.4999 127 49.9999Z" fill="url(#paint0_linear_64_6)"/>
<path d="M2.18 130V116H8.2C9.72 116 10.9133 116.307 11.78 116.92C12.6467 117.533 13.08 118.427 13.08 119.6C13.08 120.747 12.6667 121.627 11.84 122.24C11.0133 122.84 9.92667 123.14 8.58 123.14L8.94 122.54C10.5 122.54 11.6933 122.853 12.52 123.48C13.36 124.093 13.78 124.993 13.78 126.18C13.78 127.38 13.34 128.32 12.46 129C11.5933 129.667 10.3 130 8.58 130H2.18ZM4.16 128.42H8.54C9.60667 128.42 10.4067 128.227 10.94 127.84C11.4867 127.44 11.76 126.833 11.76 126.02C11.76 125.207 11.4867 124.613 10.94 124.24C10.4067 123.867 9.60667 123.68 8.54 123.68H4.16V128.42ZM4.16 122.16H8.06C9.03333 122.16 9.77333 121.967 10.28 121.58C10.8 121.193 11.06 120.627 11.06 119.88C11.06 119.12 10.8 118.547 10.28 118.16C9.77333 117.773 9.03333 117.58 8.06 117.58H4.16V122.16ZM15.0414 129.98L15.1614 128.36C15.2547 128.373 15.3414 128.387 15.4214 128.4C15.5014 128.413 15.5747 128.42 15.6414 128.42C16.0681 128.42 16.4014 128.273 16.6414 127.98C16.8947 127.687 17.0814 127.3 17.2014 126.82C17.3214 126.327 17.4081 125.773 17.4614 125.16C17.5147 124.547 17.5547 123.933 17.5814 123.32L17.7614 119.4H25.9014V130H23.9814V120.52L24.4414 121.08H19.0014L19.4414 120.5L19.3014 123.44C19.2614 124.373 19.1881 125.247 19.0814 126.06C18.9747 126.873 18.8081 127.587 18.5814 128.2C18.3681 128.813 18.0681 129.293 17.6814 129.64C17.3081 129.987 16.8214 130.16 16.2214 130.16C16.0481 130.16 15.8614 130.14 15.6614 130.1C15.4747 130.073 15.2681 130.033 15.0414 129.98ZM36.1139 130V127.76L36.0139 127.34V123.52C36.0139 122.707 35.7739 122.08 35.2939 121.64C34.8272 121.187 34.1206 120.96 33.1739 120.96C32.5472 120.96 31.9339 121.067 31.3339 121.28C30.7339 121.48 30.2272 121.753 29.8139 122.1L29.0139 120.66C29.5606 120.22 30.2139 119.887 30.9739 119.66C31.7472 119.42 32.5539 119.3 33.3939 119.3C34.8472 119.3 35.9672 119.653 36.7539 120.36C37.5406 121.067 37.9339 122.147 37.9339 123.6V130H36.1139ZM32.6339 130.12C31.8472 130.12 31.1539 129.987 30.5539 129.72C29.9672 129.453 29.5139 129.087 29.1939 128.62C28.8739 128.14 28.7139 127.6 28.7139 127C28.7139 126.427 28.8472 125.907 29.1139 125.44C29.3939 124.973 29.8406 124.6 30.4539 124.32C31.0806 124.04 31.9206 123.9 32.9739 123.9H36.3339V125.28H33.0539C32.0939 125.28 31.4472 125.44 31.1139 125.76C30.7806 126.08 30.6139 126.467 30.6139 126.92C30.6139 127.44 30.8206 127.86 31.2339 128.18C31.6472 128.487 32.2206 128.64 32.9539 128.64C33.6739 128.64 34.3006 128.48 34.8339 128.16C35.3806 127.84 35.7739 127.373 36.0139 126.76L36.3939 128.08C36.1406 128.707 35.6939 129.207 35.0539 129.58C34.4139 129.94 33.6072 130.12 32.6339 130.12ZM48.6313 129.1V121.08H44.0313L43.9313 123.12C43.9046 123.787 43.8579 124.433 43.7913 125.06C43.7379 125.673 43.6446 126.24 43.5113 126.76C43.3913 127.28 43.2113 127.707 42.9713 128.04C42.7313 128.373 42.4113 128.58 42.0113 128.66L40.1113 128.32C40.5246 128.333 40.8579 128.2 41.1113 127.92C41.3646 127.627 41.5579 127.227 41.6913 126.72C41.8379 126.213 41.9446 125.64 42.0113 125C42.0779 124.347 42.1313 123.673 42.1712 122.98L42.3313 119.4H50.5512V129.1H48.6313ZM39.6913 132.46V128.32H52.1713V132.46H50.3713V130H41.5113V132.46H39.6913ZM59.3925 130.12C58.2592 130.12 57.2592 129.887 56.3925 129.42C55.5392 128.953 54.8725 128.313 54.3925 127.5C53.9258 126.687 53.6925 125.753 53.6925 124.7C53.6925 123.647 53.9192 122.713 54.3725 121.9C54.8392 121.087 55.4725 120.453 56.2725 120C57.0858 119.533 57.9992 119.3 59.0125 119.3C60.0392 119.3 60.9458 119.527 61.7325 119.98C62.5192 120.433 63.1325 121.073 63.5725 121.9C64.0258 122.713 64.2525 123.667 64.2525 124.76C64.2525 124.84 64.2458 124.933 64.2325 125.04C64.2325 125.147 64.2258 125.247 64.2125 125.34H55.1925V123.96H63.2125L62.4325 124.44C62.4458 123.76 62.3058 123.153 62.0125 122.62C61.7192 122.087 61.3125 121.673 60.7925 121.38C60.2858 121.073 59.6925 120.92 59.0125 120.92C58.3458 120.92 57.7525 121.073 57.2325 121.38C56.7125 121.673 56.3058 122.093 56.0125 122.64C55.7192 123.173 55.5725 123.787 55.5725 124.48V124.8C55.5725 125.507 55.7325 126.14 56.0525 126.7C56.3858 127.247 56.8458 127.673 57.4325 127.98C58.0192 128.287 58.6925 128.44 59.4525 128.44C60.0792 128.44 60.6458 128.333 61.1525 128.12C61.6725 127.907 62.1258 127.587 62.5125 127.16L63.5725 128.4C63.0925 128.96 62.4925 129.387 61.7725 129.68C61.0658 129.973 60.2725 130.12 59.3925 130.12ZM67.2311 130V119.4H69.1511V123.9H75.1911V119.4H77.1111V130H75.1911V125.56H69.1511V130H67.2311ZM80.8444 130V119.4H82.7644V127.12L89.2644 119.4H91.0044V130H89.0844V122.28L82.6044 130H80.8444ZM99.4511 130.12C98.3178 130.12 97.3178 129.887 96.4511 129.42C95.5978 128.953 94.9311 128.313 94.4511 127.5C93.9844 126.687 93.7511 125.753 93.7511 124.7C93.7511 123.647 93.9778 122.713 94.4311 121.9C94.8978 121.087 95.5311 120.453 96.3311 120C97.1444 119.533 98.0578 119.3 99.0711 119.3C100.098 119.3 101.004 119.527 101.791 119.98C102.578 120.433 103.191 121.073 103.631 121.9C104.084 122.713 104.311 123.667 104.311 124.76C104.311 124.84 104.304 124.933 104.291 125.04C104.291 125.147 104.284 125.247 104.271 125.34H95.2511V123.96H103.271L102.491 124.44C102.504 123.76 102.364 123.153 102.071 122.62C101.778 122.087 101.371 121.673 100.851 121.38C100.344 121.073 99.7511 120.92 99.0711 120.92C98.4044 120.92 97.8111 121.073 97.2911 121.38C96.7711 121.673 96.3644 122.093 96.0711 122.64C95.7778 123.173 95.6311 123.787 95.6311 124.48V124.8C95.6311 125.507 95.7911 126.14 96.1111 126.7C96.4444 127.247 96.9044 127.673 97.4911 127.98C98.0778 128.287 98.7511 128.44 99.5111 128.44C100.138 128.44 100.704 128.333 101.211 128.12C101.731 127.907 102.184 127.587 102.571 127.16L103.631 128.4C103.151 128.96 102.551 129.387 101.831 129.68C101.124 129.973 100.331 130.12 99.4511 130.12ZM114.701 122.62H121.921V124.34H114.701V122.62ZM114.901 130H112.901V116H122.781V117.74H114.901V130ZM125.316 130V119.4H127.236V130H125.316ZM126.276 117.36C125.903 117.36 125.589 117.24 125.336 117C125.096 116.76 124.976 116.467 124.976 116.12C124.976 115.76 125.096 115.46 125.336 115.22C125.589 114.98 125.903 114.86 126.276 114.86C126.649 114.86 126.956 114.98 127.196 115.22C127.449 115.447 127.576 115.733 127.576 116.08C127.576 116.44 127.456 116.747 127.216 117C126.976 117.24 126.663 117.36 126.276 117.36ZM135.542 134C134.569 134 133.622 133.86 132.702 133.58C131.795 133.313 131.055 132.927 130.482 132.42L131.402 130.94C131.895 131.367 132.502 131.7 133.222 131.94C133.942 132.193 134.695 132.32 135.482 132.32C136.735 132.32 137.655 132.027 138.242 131.44C138.829 130.853 139.122 129.96 139.122 128.76V126.52L139.322 124.42L139.222 122.3V119.4H141.042V128.56C141.042 130.427 140.575 131.8 139.642 132.68C138.709 133.56 137.342 134 135.542 134ZM135.302 129.56C134.275 129.56 133.355 129.347 132.542 128.92C131.742 128.48 131.102 127.873 130.622 127.1C130.155 126.327 129.922 125.433 129.922 124.42C129.922 123.393 130.155 122.5 130.622 121.74C131.102 120.967 131.742 120.367 132.542 119.94C133.355 119.513 134.275 119.3 135.302 119.3C136.209 119.3 137.035 119.487 137.782 119.86C138.529 120.22 139.122 120.78 139.562 121.54C140.015 122.3 140.242 123.26 140.242 124.42C140.242 125.567 140.015 126.52 139.562 127.28C139.122 128.04 138.529 128.613 137.782 129C137.035 129.373 136.209 129.56 135.302 129.56ZM135.522 127.88C136.229 127.88 136.855 127.733 137.402 127.44C137.949 127.147 138.375 126.74 138.682 126.22C139.002 125.7 139.162 125.1 139.162 124.42C139.162 123.74 139.002 123.14 138.682 122.62C138.375 122.1 137.949 121.7 137.402 121.42C136.855 121.127 136.229 120.98 135.522 120.98C134.815 120.98 134.182 121.127 133.622 121.42C133.075 121.7 132.642 122.1 132.322 122.62C132.015 123.14 131.862 123.74 131.862 124.42C131.862 125.1 132.015 125.7 132.322 126.22C132.642 126.74 133.075 127.147 133.622 127.44C134.182 127.733 134.815 127.88 135.522 127.88ZM157.971 119.3C158.824 119.3 159.577 119.467 160.231 119.8C160.884 120.133 161.391 120.64 161.751 121.32C162.124 122 162.311 122.86 162.311 123.9V130H160.391V124.12C160.391 123.093 160.151 122.32 159.671 121.8C159.191 121.28 158.517 121.02 157.651 121.02C157.011 121.02 156.451 121.153 155.971 121.42C155.491 121.687 155.117 122.08 154.851 122.6C154.597 123.12 154.471 123.767 154.471 124.54V130H152.551V124.12C152.551 123.093 152.311 122.32 151.831 121.8C151.364 121.28 150.691 121.02 149.811 121.02C149.184 121.02 148.631 121.153 148.151 121.42C147.671 121.687 147.297 122.08 147.031 122.6C146.764 123.12 146.631 123.767 146.631 124.54V130H144.711V119.4H146.551V122.22L146.251 121.5C146.584 120.807 147.097 120.267 147.791 119.88C148.484 119.493 149.291 119.3 150.211 119.3C151.224 119.3 152.097 119.553 152.831 120.06C153.564 120.553 154.044 121.307 154.271 122.32L153.491 122C153.811 121.187 154.371 120.533 155.171 120.04C155.971 119.547 156.904 119.3 157.971 119.3ZM172.423 130V127.76L172.323 127.34V123.52C172.323 122.707 172.083 122.08 171.603 121.64C171.137 121.187 170.43 120.96 169.483 120.96C168.857 120.96 168.243 121.067 167.643 121.28C167.043 121.48 166.537 121.753 166.123 122.1L165.323 120.66C165.87 120.22 166.523 119.887 167.283 119.66C168.057 119.42 168.863 119.3 169.703 119.3C171.157 119.3 172.277 119.653 173.063 120.36C173.85 121.067 174.243 122.147 174.243 123.6V130H172.423ZM168.943 130.12C168.157 130.12 167.463 129.987 166.863 129.72C166.277 129.453 165.823 129.087 165.503 128.62C165.183 128.14 165.023 127.6 165.023 127C165.023 126.427 165.157 125.907 165.423 125.44C165.703 124.973 166.15 124.6 166.763 124.32C167.39 124.04 168.23 123.9 169.283 123.9H172.643V125.28H169.363C168.403 125.28 167.757 125.44 167.423 125.76C167.09 126.08 166.923 126.467 166.923 126.92C166.923 127.44 167.13 127.86 167.543 128.18C167.957 128.487 168.53 128.64 169.263 128.64C169.983 128.64 170.61 128.48 171.143 128.16C171.69 127.84 172.083 127.373 172.323 126.76L172.703 128.08C172.45 128.707 172.003 129.207 171.363 129.58C170.723 129.94 169.917 130.12 168.943 130.12Z" fill="black"/>
<path d="M245 67.3599C242.867 67.3599 241.04 67.0532 239.52 66.4399C238.027 65.8265 236.867 64.9332 236.04 63.7599C235.24 62.5865 234.84 61.1599 234.84 59.4799C234.84 58.1732 235.107 57.0132 235.64 55.9999C236.2 54.9599 236.96 54.1199 237.92 53.4799C238.88 52.8399 239.987 52.4399 241.24 52.2799V52.9199C239.48 52.5465 238.08 51.7332 237.04 50.4799C236.027 49.1999 235.52 47.6932 235.52 45.9599C235.52 44.3865 235.907 43.0399 236.68 41.9199C237.48 40.7732 238.587 39.9065 240 39.3199C241.413 38.7332 243.08 38.4399 245 38.4399C246.947 38.4399 248.627 38.7332 250.04 39.3199C251.453 39.9065 252.547 40.7732 253.32 41.9199C254.093 43.0399 254.48 44.3865 254.48 45.9599C254.48 47.1065 254.24 48.1732 253.76 49.1599C253.307 50.1465 252.653 50.9599 251.8 51.5999C250.973 52.2399 249.987 52.6799 248.84 52.9199V52.2799C250.707 52.5465 252.227 53.3332 253.4 54.6399C254.573 55.9199 255.16 57.5332 255.16 59.4799C255.16 61.1599 254.747 62.5865 253.92 63.7599C253.12 64.9332 251.96 65.8265 250.44 66.4399C248.947 67.0532 247.133 67.3599 245 67.3599ZM245 64.3599C247.187 64.3599 248.84 63.9332 249.96 63.0799C251.08 62.2265 251.64 60.9599 251.64 59.2799C251.64 57.5732 251.08 56.3065 249.96 55.4799C248.84 54.6532 247.187 54.2399 245 54.2399C242.84 54.2399 241.187 54.6532 240.04 55.4799C238.92 56.3065 238.36 57.5732 238.36 59.2799C238.36 60.9599 238.92 62.2265 240.04 63.0799C241.187 63.9332 242.84 64.3599 245 64.3599ZM245 51.1999C246.253 51.1999 247.32 51.0132 248.2 50.6399C249.08 50.2399 249.76 49.6665 250.24 48.9199C250.72 48.1732 250.96 47.2932 250.96 46.2799C250.96 44.7599 250.427 43.5732 249.36 42.7199C248.32 41.8665 246.867 41.4399 245 41.4399C243.133 41.4399 241.68 41.8665 240.64 42.7199C239.6 43.5732 239.08 44.7599 239.08 46.2799C239.08 47.8265 239.6 49.0399 240.64 49.9199C241.68 50.7732 243.133 51.1999 245 51.1999ZM269.504 67.3599C268.011 67.3599 266.504 67.1465 264.984 66.7199C263.491 66.2665 262.131 65.5865 260.904 64.6799C260.558 64.4399 260.318 64.1599 260.184 63.8399C260.078 63.4932 260.064 63.1599 260.144 62.8399C260.224 62.5199 260.384 62.2532 260.624 62.0399C260.864 61.7999 261.144 61.6665 261.464 61.6399C261.811 61.6132 262.171 61.7199 262.544 61.9599C263.611 62.7065 264.718 63.2665 265.864 63.6399C267.011 63.9865 268.211 64.1599 269.464 64.1599C270.718 64.1599 271.798 63.9199 272.704 63.4399C273.611 62.9599 274.304 62.2932 274.784 61.4399C275.291 60.5865 275.544 59.5865 275.544 58.4399C275.544 56.6799 275.024 55.2399 273.984 54.1199C272.944 52.9999 271.531 52.4399 269.744 52.4399C268.651 52.4399 267.638 52.6399 266.704 53.0399C265.798 53.4132 264.944 54.0532 264.144 54.9599C263.958 55.1732 263.718 55.3599 263.424 55.5199C263.158 55.6799 262.851 55.7599 262.504 55.7599C261.998 55.7599 261.611 55.6265 261.344 55.3599C261.078 55.0665 260.944 54.6799 260.944 54.1999V40.4799C260.944 39.9465 261.091 39.5332 261.384 39.2399C261.678 38.9465 262.091 38.7999 262.624 38.7999H276.104C276.638 38.7999 277.051 38.9332 277.344 39.1999C277.638 39.4665 277.784 39.8532 277.784 40.3599C277.784 40.8665 277.638 41.2665 277.344 41.5599C277.051 41.8265 276.638 41.9599 276.104 41.9599H264.584V52.6399H263.544C264.264 51.5732 265.224 50.7465 266.424 50.1599C267.651 49.5732 268.998 49.2799 270.464 49.2799C272.251 49.2799 273.784 49.6665 275.064 50.4399C276.371 51.1865 277.384 52.2399 278.104 53.5999C278.824 54.9332 279.184 56.4932 279.184 58.2799C279.184 60.0399 278.784 61.6132 277.984 62.9999C277.211 64.3599 276.104 65.4265 274.664 66.1999C273.224 66.9732 271.504 67.3599 269.504 67.3599ZM293.249 66.9599C293.035 67.3332 292.769 67.5732 292.449 67.6799C292.155 67.8132 291.862 67.8399 291.569 67.7599C291.275 67.7065 291.022 67.5599 290.809 67.3199C290.622 67.1065 290.515 66.8399 290.489 66.5199C290.462 66.1999 290.542 65.8532 290.729 65.4799L306.009 38.9199C306.222 38.5465 306.475 38.2932 306.769 38.1599C307.062 38.0265 307.355 37.9999 307.649 38.0799C307.942 38.1332 308.182 38.2799 308.369 38.5199C308.582 38.7332 308.715 38.9999 308.769 39.3199C308.822 39.6399 308.742 39.9865 308.529 40.3599L293.249 66.9599ZM289.969 55.6799C287.809 55.6799 286.115 54.9199 284.889 53.3999C283.689 51.8799 283.089 49.7599 283.089 47.0399C283.089 45.2265 283.355 43.6799 283.889 42.3999C284.449 41.1199 285.235 40.1465 286.249 39.4799C287.289 38.7865 288.529 38.4399 289.969 38.4399C292.102 38.4399 293.782 39.1999 295.009 40.7199C296.235 42.2399 296.849 44.3465 296.849 47.0399C296.849 48.8532 296.569 50.4132 296.009 51.7199C295.475 52.9999 294.689 53.9865 293.649 54.6799C292.635 55.3465 291.409 55.6799 289.969 55.6799ZM289.969 53.0799C290.769 53.0799 291.449 52.8665 292.009 52.4399C292.569 51.9865 292.995 51.3199 293.289 50.4399C293.582 49.5332 293.729 48.3999 293.729 47.0399C293.729 45.0399 293.395 43.5465 292.729 42.5599C292.062 41.5465 291.142 41.0399 289.969 41.0399C289.195 41.0399 288.515 41.2665 287.929 41.7199C287.369 42.1465 286.929 42.8132 286.609 43.7199C286.315 44.5999 286.169 45.7065 286.169 47.0399C286.169 49.0665 286.502 50.5865 287.169 51.5999C287.862 52.5865 288.795 53.0799 289.969 53.0799ZM309.329 67.3599C307.169 67.3599 305.475 66.5999 304.249 65.0799C303.049 63.5599 302.449 61.4399 302.449 58.7199C302.449 56.9065 302.715 55.3599 303.249 54.0799C303.809 52.7999 304.595 51.8265 305.609 51.1599C306.649 50.4665 307.889 50.1199 309.329 50.1199C311.462 50.1199 313.142 50.8799 314.369 52.3999C315.595 53.9199 316.209 56.0265 316.209 58.7199C316.209 60.5332 315.929 62.0932 315.369 63.3999C314.835 64.6799 314.049 65.6665 313.009 66.3599C311.995 67.0265 310.769 67.3599 309.329 67.3599ZM309.329 64.7599C310.129 64.7599 310.809 64.5465 311.369 64.1199C311.929 63.6665 312.355 62.9999 312.649 62.1199C312.942 61.2132 313.089 60.0799 313.089 58.7199C313.089 56.7199 312.755 55.2265 312.089 54.2399C311.422 53.2265 310.502 52.7199 309.329 52.7199C308.555 52.7199 307.875 52.9465 307.289 53.3999C306.729 53.8265 306.289 54.4932 305.969 55.3999C305.675 56.2799 305.529 57.3865 305.529 58.7199C305.529 60.7465 305.862 62.2665 306.529 63.2799C307.222 64.2665 308.155 64.7599 309.329 64.7599Z" fill="black"/>
<path d="M326 49.9999C326 38.7914 322.234 27.908 315.306 19.0967C308.379 10.2855 298.692 4.05736 287.8 1.41219C276.908 -1.23297 265.443 -0.141768 255.246 4.51064C245.049 9.16305 236.71 17.1068 231.569 27.0668C226.429 37.0267 224.783 48.4251 226.898 59.4323C229.012 70.4395 234.764 80.417 243.229 87.7633C251.695 95.1095 262.383 99.3983 273.578 99.9412C284.773 100.484 295.826 97.2497 304.963 90.7571C314.099 84.2645 309.026 78.2261 301.5 83.5745C293.974 88.9229 283.227 91.5874 274.005 91.1401C264.782 90.6929 255.978 87.1599 249.004 81.1083C242.031 75.0567 237.293 66.8375 235.551 57.7701C233.809 48.7027 235.164 39.3129 239.399 31.1082C243.634 22.9035 250.503 16.3596 258.903 12.5271C267.304 8.6946 276.748 7.7957 285.72 9.97471C294.693 12.1537 302.673 17.2843 308.38 24.5428C314.086 31.8012 317.189 40.7667 317.189 49.9999C317.189 59.2331 326 61.2083 326 49.9999Z" fill="url(#paint1_linear_64_6)"/>
<path d="M230.633 130V116H236.093C237.32 116 238.366 116.193 239.233 116.58C240.1 116.967 240.766 117.527 241.233 118.26C241.7 118.993 241.933 119.867 241.933 120.88C241.933 121.893 241.7 122.767 241.233 123.5C240.766 124.22 240.1 124.78 239.233 125.18C238.366 125.567 237.32 125.76 236.093 125.76H231.733L232.633 124.82V130H230.633ZM232.633 125.02L231.733 124.02H236.033C237.313 124.02 238.28 123.747 238.933 123.2C239.6 122.653 239.933 121.88 239.933 120.88C239.933 119.88 239.6 119.107 238.933 118.56C238.28 118.013 237.313 117.74 236.033 117.74H231.733L232.633 116.74V125.02ZM250.798 130V127.76L250.698 127.34V123.52C250.698 122.707 250.458 122.08 249.978 121.64C249.511 121.187 248.804 120.96 247.858 120.96C247.231 120.96 246.618 121.067 246.018 121.28C245.418 121.48 244.911 121.753 244.498 122.1L243.698 120.66C244.244 120.22 244.898 119.887 245.658 119.66C246.431 119.42 247.238 119.3 248.078 119.3C249.531 119.3 250.651 119.653 251.438 120.36C252.224 121.067 252.618 122.147 252.618 123.6V130H250.798ZM247.318 130.12C246.531 130.12 245.838 129.987 245.238 129.72C244.651 129.453 244.198 129.087 243.878 128.62C243.558 128.14 243.398 127.6 243.398 127C243.398 126.427 243.531 125.907 243.798 125.44C244.078 124.973 244.524 124.6 245.138 124.32C245.764 124.04 246.604 123.9 247.658 123.9H251.018V125.28H247.738C246.778 125.28 246.131 125.44 245.798 125.76C245.464 126.08 245.298 126.467 245.298 126.92C245.298 127.44 245.504 127.86 245.918 128.18C246.331 128.487 246.904 128.64 247.638 128.64C248.358 128.64 248.984 128.48 249.518 128.16C250.064 127.84 250.458 127.373 250.698 126.76L251.078 128.08C250.824 128.707 250.378 129.207 249.738 129.58C249.098 129.94 248.291 130.12 247.318 130.12ZM260.975 130.16C260.095 130.16 259.315 130.02 258.635 129.74C257.968 129.46 257.395 129.047 256.915 128.5C256.435 127.94 256.068 127.24 255.815 126.4C255.575 125.547 255.455 124.547 255.455 123.4C255.455 122.493 255.535 121.68 255.695 120.96C255.855 120.24 256.082 119.6 256.375 119.04C256.682 118.48 257.055 117.993 257.495 117.58C257.948 117.167 258.455 116.827 259.015 116.56C259.588 116.28 260.215 116.067 260.895 115.92L265.735 114.84L266.015 116.62L261.555 117.58C261.288 117.633 260.968 117.713 260.595 117.82C260.222 117.927 259.842 118.093 259.455 118.32C259.068 118.533 258.708 118.833 258.375 119.22C258.042 119.607 257.775 120.113 257.575 120.74C257.375 121.353 257.275 122.113 257.275 123.02C257.275 123.273 257.282 123.467 257.295 123.6C257.308 123.733 257.322 123.867 257.335 124C257.362 124.133 257.382 124.333 257.395 124.6L256.595 123.78C256.808 123.047 257.148 122.407 257.615 121.86C258.082 121.313 258.642 120.893 259.295 120.6C259.962 120.293 260.688 120.14 261.475 120.14C262.462 120.14 263.335 120.353 264.095 120.78C264.868 121.207 265.475 121.793 265.915 122.54C266.355 123.287 266.575 124.14 266.575 125.1C266.575 126.073 266.342 126.947 265.875 127.72C265.422 128.48 264.775 129.08 263.935 129.52C263.095 129.947 262.108 130.16 260.975 130.16ZM261.155 128.56C261.835 128.56 262.435 128.413 262.955 128.12C263.475 127.813 263.882 127.407 264.175 126.9C264.468 126.38 264.615 125.8 264.615 125.16C264.615 124.52 264.468 123.953 264.175 123.46C263.882 122.967 263.475 122.58 262.955 122.3C262.435 122.007 261.822 121.86 261.115 121.86C260.448 121.86 259.848 122 259.315 122.28C258.782 122.547 258.368 122.927 258.075 123.42C257.782 123.9 257.635 124.46 257.635 125.1C257.635 125.74 257.782 126.327 258.075 126.86C258.382 127.38 258.795 127.793 259.315 128.1C259.848 128.407 260.462 128.56 261.155 128.56ZM273.857 130.12C272.79 130.12 271.844 129.887 271.017 129.42C270.19 128.953 269.537 128.313 269.057 127.5C268.577 126.673 268.337 125.74 268.337 124.7C268.337 123.647 268.577 122.713 269.057 121.9C269.537 121.087 270.19 120.453 271.017 120C271.844 119.533 272.79 119.3 273.857 119.3C274.91 119.3 275.85 119.533 276.677 120C277.517 120.453 278.17 121.087 278.637 121.9C279.117 122.7 279.357 123.633 279.357 124.7C279.357 125.753 279.117 126.687 278.637 127.5C278.17 128.313 277.517 128.953 276.677 129.42C275.85 129.887 274.91 130.12 273.857 130.12ZM273.857 128.44C274.537 128.44 275.144 128.287 275.677 127.98C276.224 127.673 276.65 127.24 276.957 126.68C277.264 126.107 277.417 125.447 277.417 124.7C277.417 123.94 277.264 123.287 276.957 122.74C276.65 122.18 276.224 121.747 275.677 121.44C275.144 121.133 274.537 120.98 273.857 120.98C273.177 120.98 272.57 121.133 272.037 121.44C271.504 121.747 271.077 122.18 270.757 122.74C270.437 123.287 270.277 123.94 270.277 124.7C270.277 125.447 270.437 126.107 270.757 126.68C271.077 127.24 271.504 127.673 272.037 127.98C272.57 128.287 273.177 128.44 273.857 128.44ZM283.839 130V120.58L284.319 121.08H279.959V119.4H289.639V121.08H285.299L285.759 120.58V130H283.839ZM298.102 130V127.76L298.002 127.34V123.52C298.002 122.707 297.762 122.08 297.282 121.64C296.816 121.187 296.109 120.96 295.162 120.96C294.536 120.96 293.922 121.067 293.322 121.28C292.722 121.48 292.216 121.753 291.802 122.1L291.002 120.66C291.549 120.22 292.202 119.887 292.962 119.66C293.736 119.42 294.542 119.3 295.382 119.3C296.836 119.3 297.956 119.653 298.742 120.36C299.529 121.067 299.922 122.147 299.922 123.6V130H298.102ZM294.622 130.12C293.836 130.12 293.142 129.987 292.542 129.72C291.956 129.453 291.502 129.087 291.182 128.62C290.862 128.14 290.702 127.6 290.702 127C290.702 126.427 290.836 125.907 291.102 125.44C291.382 124.973 291.829 124.6 292.442 124.32C293.069 124.04 293.909 123.9 294.962 123.9H298.322V125.28H295.042C294.082 125.28 293.436 125.44 293.102 125.76C292.769 126.08 292.602 126.467 292.602 126.92C292.602 127.44 292.809 127.86 293.222 128.18C293.636 128.487 294.209 128.64 294.942 128.64C295.662 128.64 296.289 128.48 296.822 128.16C297.369 127.84 297.762 127.373 298.002 126.76L298.382 128.08C298.129 128.707 297.682 129.207 297.042 129.58C296.402 129.94 295.596 130.12 294.622 130.12ZM308.751 130V119.4H313.671C314.911 119.4 315.884 119.64 316.591 120.12C317.311 120.587 317.671 121.253 317.671 122.12C317.671 122.987 317.331 123.66 316.651 124.14C315.984 124.607 315.097 124.84 313.991 124.84L314.291 124.32C315.557 124.32 316.497 124.553 317.111 125.02C317.724 125.487 318.031 126.173 318.031 127.08C318.031 128 317.684 128.72 316.991 129.24C316.311 129.747 315.264 130 313.851 130H308.751ZM310.631 128.52H313.711C314.511 128.52 315.111 128.4 315.511 128.16C315.911 127.907 316.111 127.507 316.111 126.96C316.111 126.4 315.924 125.993 315.551 125.74C315.191 125.473 314.617 125.34 313.831 125.34H310.631V128.52ZM310.631 123.96H313.511C314.244 123.96 314.797 123.827 315.171 123.56C315.557 123.28 315.751 122.893 315.751 122.4C315.751 121.893 315.557 121.513 315.171 121.26C314.797 121.007 314.244 120.88 313.511 120.88H310.631V123.96ZM203.192 153.98L203.312 152.36C203.405 152.373 203.492 152.387 203.572 152.4C203.652 152.413 203.725 152.42 203.792 152.42C204.218 152.42 204.552 152.273 204.792 151.98C205.045 151.687 205.232 151.3 205.352 150.82C205.472 150.327 205.558 149.773 205.612 149.16C205.665 148.547 205.705 147.933 205.732 147.32L205.912 143.4H214.052V154H212.132V144.52L212.592 145.08H207.152L207.592 144.5L207.452 147.44C207.412 148.373 207.338 149.247 207.232 150.06C207.125 150.873 206.958 151.587 206.732 152.2C206.518 152.813 206.218 153.293 205.832 153.64C205.458 153.987 204.972 154.16 204.372 154.16C204.198 154.16 204.012 154.14 203.812 154.1C203.625 154.073 203.418 154.033 203.192 153.98ZM217.764 154V143.4H219.684V147.74H222.884V149.52H219.684V154H217.764ZM227.144 154.12C226.104 154.12 225.178 153.887 224.364 153.42C223.564 152.953 222.931 152.313 222.464 151.5C221.998 150.673 221.764 149.74 221.764 148.7C221.764 147.647 221.998 146.713 222.464 145.9C222.931 145.073 223.564 144.433 224.364 143.98C225.178 143.527 226.104 143.3 227.144 143.3C228.171 143.3 229.091 143.527 229.904 143.98C230.718 144.433 231.358 145.073 231.824 145.9C232.291 146.713 232.524 147.647 232.524 148.7C232.524 149.753 232.291 150.687 231.824 151.5C231.358 152.313 230.718 152.953 229.904 153.42C229.091 153.887 228.171 154.12 227.144 154.12ZM227.144 152.44C227.811 152.44 228.404 152.287 228.924 151.98C229.444 151.66 229.858 151.227 230.164 150.68C230.471 150.12 230.624 149.46 230.624 148.7C230.624 147.94 230.471 147.287 230.164 146.74C229.858 146.18 229.444 145.747 228.924 145.44C228.404 145.133 227.811 144.98 227.144 144.98C226.491 144.98 225.898 145.133 225.364 145.44C224.844 145.747 224.431 146.18 224.124 146.74C223.818 147.287 223.664 147.94 223.664 148.7C223.664 149.46 223.818 150.12 224.124 150.68C224.431 151.227 224.844 151.66 225.364 151.98C225.898 152.287 226.491 152.44 227.144 152.44ZM240.184 154.16C239.304 154.16 238.524 154.02 237.844 153.74C237.177 153.46 236.604 153.047 236.124 152.5C235.644 151.94 235.277 151.24 235.024 150.4C234.784 149.547 234.664 148.547 234.664 147.4C234.664 146.493 234.744 145.68 234.904 144.96C235.064 144.24 235.29 143.6 235.584 143.04C235.89 142.48 236.264 141.993 236.704 141.58C237.157 141.167 237.664 140.827 238.224 140.56C238.797 140.28 239.424 140.067 240.104 139.92L244.944 138.84L245.224 140.62L240.764 141.58C240.497 141.633 240.177 141.713 239.804 141.82C239.43 141.927 239.05 142.093 238.664 142.32C238.277 142.533 237.917 142.833 237.584 143.22C237.25 143.607 236.984 144.113 236.784 144.74C236.584 145.353 236.484 146.113 236.484 147.02C236.484 147.273 236.49 147.467 236.504 147.6C236.517 147.733 236.53 147.867 236.544 148C236.57 148.133 236.59 148.333 236.604 148.6L235.804 147.78C236.017 147.047 236.357 146.407 236.824 145.86C237.29 145.313 237.85 144.893 238.504 144.6C239.17 144.293 239.897 144.14 240.684 144.14C241.67 144.14 242.544 144.353 243.304 144.78C244.077 145.207 244.684 145.793 245.124 146.54C245.564 147.287 245.784 148.14 245.784 149.1C245.784 150.073 245.55 150.947 245.084 151.72C244.63 152.48 243.984 153.08 243.144 153.52C242.304 153.947 241.317 154.16 240.184 154.16ZM240.364 152.56C241.044 152.56 241.644 152.413 242.164 152.12C242.684 151.813 243.09 151.407 243.384 150.9C243.677 150.38 243.824 149.8 243.824 149.16C243.824 148.52 243.677 147.953 243.384 147.46C243.09 146.967 242.684 146.58 242.164 146.3C241.644 146.007 241.03 145.86 240.324 145.86C239.657 145.86 239.057 146 238.524 146.28C237.99 146.547 237.577 146.927 237.284 147.42C236.99 147.9 236.844 148.46 236.844 149.1C236.844 149.74 236.99 150.327 237.284 150.86C237.59 151.38 238.004 151.793 238.524 152.1C239.057 152.407 239.67 152.56 240.364 152.56ZM259.006 154V143.4H260.926V154H259.006ZM253.306 147C254.653 147.013 255.673 147.32 256.366 147.92C257.073 148.52 257.426 149.367 257.426 150.46C257.426 151.607 257.039 152.493 256.266 153.12C255.506 153.733 254.413 154.033 252.986 154.02L248.526 154V143.4H250.446V146.98L253.306 147ZM252.846 152.56C253.699 152.573 254.353 152.4 254.806 152.04C255.259 151.68 255.486 151.147 255.486 150.44C255.486 149.747 255.259 149.24 254.806 148.92C254.366 148.6 253.713 148.433 252.846 148.42L250.446 148.38V152.54L252.846 152.56ZM262.979 154L267.539 148.08L267.519 149.06L263.179 143.4H265.319L268.639 147.76H267.819L271.139 143.4H273.239L268.839 149.1L268.859 148.08L273.459 154H271.279L267.779 149.36L268.559 149.48L265.119 154H262.979ZM285.47 154.12C284.39 154.12 283.424 153.887 282.57 153.42C281.73 152.953 281.07 152.313 280.59 151.5C280.11 150.687 279.87 149.753 279.87 148.7C279.87 147.647 280.11 146.713 280.59 145.9C281.07 145.087 281.73 144.453 282.57 144C283.424 143.533 284.39 143.3 285.47 143.3C286.43 143.3 287.284 143.493 288.03 143.88C288.79 144.253 289.377 144.813 289.79 145.56L288.33 146.5C287.984 145.98 287.557 145.6 287.05 145.36C286.557 145.107 286.024 144.98 285.45 144.98C284.757 144.98 284.137 145.133 283.59 145.44C283.044 145.747 282.61 146.18 282.29 146.74C281.97 147.287 281.81 147.94 281.81 148.7C281.81 149.46 281.97 150.12 282.29 150.68C282.61 151.24 283.044 151.673 283.59 151.98C284.137 152.287 284.757 152.44 285.45 152.44C286.024 152.44 286.557 152.32 287.05 152.08C287.557 151.827 287.984 151.44 288.33 150.92L289.79 151.84C289.377 152.573 288.79 153.14 288.03 153.54C287.284 153.927 286.43 154.12 285.47 154.12ZM294.239 154V144.58L294.719 145.08H290.359V143.4H300.039V145.08H295.699L296.159 144.58V154H294.239ZM302.003 154V143.4H303.923V151.12L310.423 143.4H312.163V154H310.243V146.28L303.763 154H302.003ZM314.129 153.98L314.249 152.36C314.343 152.373 314.429 152.387 314.509 152.4C314.589 152.413 314.663 152.42 314.729 152.42C315.156 152.42 315.489 152.273 315.729 151.98C315.983 151.687 316.169 151.3 316.289 150.82C316.409 150.327 316.496 149.773 316.549 149.16C316.603 148.547 316.643 147.933 316.669 147.32L316.849 143.4H324.989V154H323.069V144.52L323.529 145.08H318.089L318.529 144.5L318.389 147.44C318.349 148.373 318.276 149.247 318.169 150.06C318.063 150.873 317.896 151.587 317.669 152.2C317.456 152.813 317.156 153.293 316.769 153.64C316.396 153.987 315.909 154.16 315.309 154.16C315.136 154.16 314.949 154.14 314.749 154.1C314.563 154.073 314.356 154.033 314.129 153.98ZM335.482 154V150.28L335.782 150.64H332.402C330.988 150.64 329.882 150.34 329.082 149.74C328.295 149.14 327.902 148.267 327.902 147.12C327.902 145.893 328.322 144.967 329.162 144.34C330.015 143.713 331.148 143.4 332.562 143.4H337.202V154H335.482ZM327.802 154L330.682 149.94H332.662L329.862 154H327.802ZM335.482 149.68V144.54L335.782 145.08H332.622C331.742 145.08 331.062 145.247 330.582 145.58C330.102 145.9 329.862 146.433 329.862 147.18C329.862 148.567 330.755 149.26 332.542 149.26H335.782L335.482 149.68ZM339.268 154L343.828 148.08L343.808 149.06L339.468 143.4H341.608L344.928 147.76H344.108L347.428 143.4H349.528L345.128 149.1L345.148 148.08L349.748 154H347.568L344.068 149.36L344.848 149.48L341.408 154H339.268Z" fill="black"/>
<path d="M433.2 66.9999C432.693 66.9999 432.293 66.8532 432 66.5599C431.707 66.2665 431.56 65.8799 431.56 65.3999C431.56 64.8932 431.707 64.5065 432 64.2399C432.293 63.9732 432.693 63.8399 433.2 63.8399H438.24V41.8799H440.16L434.32 45.6399C433.947 45.8799 433.587 45.9865 433.24 45.9599C432.92 45.9065 432.64 45.7732 432.4 45.5599C432.16 45.3199 432 45.0399 431.92 44.7199C431.84 44.3999 431.853 44.0799 431.96 43.7599C432.093 43.4132 432.36 43.1332 432.76 42.9199L438.28 39.3199C438.68 39.0799 439.053 38.8932 439.4 38.7599C439.773 38.5999 440.133 38.5199 440.48 38.5199C440.88 38.5199 441.227 38.6399 441.52 38.8799C441.813 39.1199 441.96 39.5065 441.96 40.0399V63.8399H446.6C447.133 63.8399 447.533 63.9732 447.8 64.2399C448.093 64.5065 448.24 64.8932 448.24 65.3999C448.24 65.9065 448.093 66.3065 447.8 66.5999C447.533 66.8665 447.133 66.9999 446.6 66.9999H433.2ZM462.984 67.3599C459.731 67.3599 457.251 66.1199 455.544 63.6399C453.864 61.1332 453.024 57.5465 453.024 52.8799C453.024 49.7065 453.398 47.0532 454.144 44.9199C454.918 42.7865 456.038 41.1732 457.504 40.0799C458.998 38.9865 460.824 38.4399 462.984 38.4399C466.264 38.4399 468.744 39.6665 470.424 42.1199C472.104 44.5465 472.944 48.1199 472.944 52.8399C472.944 55.9599 472.558 58.5999 471.784 60.7599C471.038 62.9199 469.931 64.5599 468.464 65.6799C466.998 66.7999 465.171 67.3599 462.984 67.3599ZM462.984 64.1999C465.118 64.1999 466.704 63.2799 467.744 61.4399C468.784 59.5999 469.304 56.7332 469.304 52.8399C469.304 48.9465 468.784 46.1065 467.744 44.3199C466.731 42.5065 465.144 41.5999 462.984 41.5999C460.851 41.5999 459.264 42.5065 458.224 44.3199C457.184 46.1065 456.664 48.9465 456.664 52.8399C456.664 56.7332 457.184 59.5999 458.224 61.4399C459.264 63.2799 460.851 64.1999 462.984 64.1999ZM486.969 67.3599C483.715 67.3599 481.235 66.1199 479.529 63.6399C477.849 61.1332 477.009 57.5465 477.009 52.8799C477.009 49.7065 477.382 47.0532 478.129 44.9199C478.902 42.7865 480.022 41.1732 481.489 40.0799C482.982 38.9865 484.809 38.4399 486.969 38.4399C490.249 38.4399 492.729 39.6665 494.409 42.1199C496.089 44.5465 496.929 48.1199 496.929 52.8399C496.929 55.9599 496.542 58.5999 495.769 60.7599C495.022 62.9199 493.915 64.5599 492.449 65.6799C490.982 66.7999 489.155 67.3599 486.969 67.3599ZM486.969 64.1999C489.102 64.1999 490.689 63.2799 491.729 61.4399C492.769 59.5999 493.289 56.7332 493.289 52.8399C493.289 48.9465 492.769 46.1065 491.729 44.3199C490.715 42.5065 489.129 41.5999 486.969 41.5999C484.835 41.5999 483.249 42.5065 482.209 44.3199C481.169 46.1065 480.649 48.9465 480.649 52.8399C480.649 56.7332 481.169 59.5999 482.209 61.4399C483.249 63.2799 484.835 64.1999 486.969 64.1999ZM511.233 66.9599C511.02 67.3332 510.753 67.5732 510.433 67.6799C510.14 67.8132 509.846 67.8399 509.553 67.7599C509.26 67.7065 509.006 67.5599 508.793 67.3199C508.606 67.1065 508.5 66.8399 508.473 66.5199C508.446 66.1999 508.526 65.8532 508.713 65.4799L523.993 38.9199C524.206 38.5465 524.46 38.2932 524.753 38.1599C525.046 38.0265 525.34 37.9999 525.633 38.0799C525.926 38.1332 526.166 38.2799 526.353 38.5199C526.566 38.7332 526.7 38.9999 526.753 39.3199C526.806 39.6399 526.726 39.9865 526.513 40.3599L511.233 66.9599ZM507.953 55.6799C505.793 55.6799 504.1 54.9199 502.873 53.3999C501.673 51.8799 501.073 49.7599 501.073 47.0399C501.073 45.2265 501.34 43.6799 501.873 42.3999C502.433 41.1199 503.22 40.1465 504.233 39.4799C505.273 38.7865 506.513 38.4399 507.953 38.4399C510.086 38.4399 511.766 39.1999 512.993 40.7199C514.22 42.2399 514.833 44.3465 514.833 47.0399C514.833 48.8532 514.553 50.4132 513.993 51.7199C513.46 52.9999 512.673 53.9865 511.633 54.6799C510.62 55.3465 509.393 55.6799 507.953 55.6799ZM507.953 53.0799C508.753 53.0799 509.433 52.8665 509.993 52.4399C510.553 51.9865 510.98 51.3199 511.273 50.4399C511.566 49.5332 511.713 48.3999 511.713 47.0399C511.713 45.0399 511.38 43.5465 510.713 42.5599C510.046 41.5465 509.126 41.0399 507.953 41.0399C507.18 41.0399 506.5 41.2665 505.913 41.7199C505.353 42.1465 504.913 42.8132 504.593 43.7199C504.3 44.5999 504.153 45.7065 504.153 47.0399C504.153 49.0665 504.486 50.5865 505.153 51.5999C505.846 52.5865 506.78 53.0799 507.953 53.0799ZM527.313 67.3599C525.153 67.3599 523.46 66.5999 522.233 65.0799C521.033 63.5599 520.433 61.4399 520.433 58.7199C520.433 56.9065 520.7 55.3599 521.233 54.0799C521.793 52.7999 522.58 51.8265 523.593 51.1599C524.633 50.4665 525.873 50.1199 527.313 50.1199C529.446 50.1199 531.126 50.8799 532.353 52.3999C533.58 53.9199 534.193 56.0265 534.193 58.7199C534.193 60.5332 533.913 62.0932 533.353 63.3999C532.82 64.6799 532.033 65.6665 530.993 66.3599C529.98 67.0265 528.753 67.3599 527.313 67.3599ZM527.313 64.7599C528.113 64.7599 528.793 64.5465 529.353 64.1199C529.913 63.6665 530.34 62.9999 530.633 62.1199C530.926 61.2132 531.073 60.0799 531.073 58.7199C531.073 56.7199 530.74 55.2265 530.073 54.2399C529.406 53.2265 528.486 52.7199 527.313 52.7199C526.54 52.7199 525.86 52.9465 525.273 53.3999C524.713 53.8265 524.273 54.4932 523.953 55.3999C523.66 56.2799 523.513 57.3865 523.513 58.7199C523.513 60.7465 523.846 62.2665 524.513 63.2799C525.206 64.2665 526.14 64.7599 527.313 64.7599Z" fill="black"/>
<path d="M527 49.9999C527 77.6141 504.614 99.9999 477 99.9999C449.386 99.9999 427 77.6141 427 49.9999C427 22.3856 449.386 -0.00012207 477 -0.00012207C504.614 -0.00012207 527 22.3856 527 49.9999ZM434.497 49.9999C434.497 73.4736 453.526 92.5028 477 92.5028C500.474 92.5028 519.503 73.4736 519.503 49.9999C519.503 26.5262 500.474 7.49694 477 7.49694C453.526 7.49694 434.497 26.5262 434.497 49.9999Z" fill="url(#paint2_linear_64_6)"/>
<path d="M414.737 130.16C413.67 130.16 412.684 129.987 411.777 129.64C410.884 129.28 410.104 128.78 409.437 128.14C408.784 127.487 408.27 126.727 407.897 125.86C407.524 124.993 407.337 124.04 407.337 123C407.337 121.96 407.524 121.007 407.897 120.14C408.27 119.273 408.79 118.52 409.457 117.88C410.124 117.227 410.904 116.727 411.797 116.38C412.704 116.02 413.69 115.84 414.757 115.84C415.837 115.84 416.83 116.027 417.737 116.4C418.657 116.76 419.437 117.3 420.077 118.02L418.777 119.28C418.244 118.72 417.644 118.307 416.977 118.04C416.31 117.76 415.597 117.62 414.837 117.62C414.05 117.62 413.317 117.753 412.637 118.02C411.97 118.287 411.39 118.66 410.897 119.14C410.404 119.62 410.017 120.193 409.737 120.86C409.47 121.513 409.337 122.227 409.337 123C409.337 123.773 409.47 124.493 409.737 125.16C410.017 125.813 410.404 126.38 410.897 126.86C411.39 127.34 411.97 127.713 412.637 127.98C413.317 128.247 414.05 128.38 414.837 128.38C415.597 128.38 416.31 128.247 416.977 127.98C417.644 127.7 418.244 127.273 418.777 126.7L420.077 127.96C419.437 128.68 418.657 129.227 417.737 129.6C416.83 129.973 415.83 130.16 414.737 130.16ZM426.603 130.12C425.536 130.12 424.59 129.887 423.763 129.42C422.936 128.953 422.283 128.313 421.803 127.5C421.323 126.673 421.083 125.74 421.083 124.7C421.083 123.647 421.323 122.713 421.803 121.9C422.283 121.087 422.936 120.453 423.763 120C424.59 119.533 425.536 119.3 426.603 119.3C427.656 119.3 428.596 119.533 429.423 120C430.263 120.453 430.916 121.087 431.383 121.9C431.863 122.7 432.103 123.633 432.103 124.7C432.103 125.753 431.863 126.687 431.383 127.5C430.916 128.313 430.263 128.953 429.423 129.42C428.596 129.887 427.656 130.12 426.603 130.12ZM426.603 128.44C427.283 128.44 427.89 128.287 428.423 127.98C428.97 127.673 429.396 127.24 429.703 126.68C430.01 126.107 430.163 125.447 430.163 124.7C430.163 123.94 430.01 123.287 429.703 122.74C429.396 122.18 428.97 121.747 428.423 121.44C427.89 121.133 427.283 120.98 426.603 120.98C425.923 120.98 425.316 121.133 424.783 121.44C424.25 121.747 423.823 122.18 423.503 122.74C423.183 123.287 423.023 123.94 423.023 124.7C423.023 125.447 423.183 126.107 423.503 126.68C423.823 127.24 424.25 127.673 424.783 127.98C425.316 128.287 425.923 128.44 426.603 128.44ZM439.776 130.16C438.896 130.16 438.116 130.02 437.436 129.74C436.769 129.46 436.196 129.047 435.716 128.5C435.236 127.94 434.869 127.24 434.616 126.4C434.376 125.547 434.256 124.547 434.256 123.4C434.256 122.493 434.336 121.68 434.496 120.96C434.656 120.24 434.882 119.6 435.176 119.04C435.482 118.48 435.856 117.993 436.296 117.58C436.749 117.167 437.256 116.827 437.816 116.56C438.389 116.28 439.016 116.067 439.696 115.92L444.536 114.84L444.816 116.62L440.356 117.58C440.089 117.633 439.769 117.713 439.396 117.82C439.022 117.927 438.642 118.093 438.256 118.32C437.869 118.533 437.509 118.833 437.176 119.22C436.842 119.607 436.576 120.113 436.376 120.74C436.176 121.353 436.076 122.113 436.076 123.02C436.076 123.273 436.082 123.467 436.096 123.6C436.109 123.733 436.122 123.867 436.136 124C436.162 124.133 436.182 124.333 436.196 124.6L435.396 123.78C435.609 123.047 435.949 122.407 436.416 121.86C436.882 121.313 437.442 120.893 438.096 120.6C438.762 120.293 439.489 120.14 440.276 120.14C441.262 120.14 442.136 120.353 442.896 120.78C443.669 121.207 444.276 121.793 444.716 122.54C445.156 123.287 445.376 124.14 445.376 125.1C445.376 126.073 445.142 126.947 444.676 127.72C444.222 128.48 443.576 129.08 442.736 129.52C441.896 129.947 440.909 130.16 439.776 130.16ZM439.956 128.56C440.636 128.56 441.236 128.413 441.756 128.12C442.276 127.813 442.682 127.407 442.976 126.9C443.269 126.38 443.416 125.8 443.416 125.16C443.416 124.52 443.269 123.953 442.976 123.46C442.682 122.967 442.276 122.58 441.756 122.3C441.236 122.007 440.622 121.86 439.916 121.86C439.249 121.86 438.649 122 438.116 122.28C437.582 122.547 437.169 122.927 436.876 123.42C436.582 123.9 436.436 124.46 436.436 125.1C436.436 125.74 436.582 126.327 436.876 126.86C437.182 127.38 437.596 127.793 438.116 128.1C438.649 128.407 439.262 128.56 439.956 128.56ZM446.28 129.98L446.4 128.36C446.493 128.373 446.58 128.387 446.66 128.4C446.74 128.413 446.813 128.42 446.88 128.42C447.306 128.42 447.64 128.273 447.88 127.98C448.133 127.687 448.32 127.3 448.44 126.82C448.56 126.327 448.646 125.773 448.7 125.16C448.753 124.547 448.793 123.933 448.82 123.32L449 119.4H457.14V130H455.22V120.52L455.68 121.08H450.24L450.68 120.5L450.54 123.44C450.5 124.373 450.426 125.247 450.32 126.06C450.213 126.873 450.046 127.587 449.82 128.2C449.606 128.813 449.306 129.293 448.92 129.64C448.546 129.987 448.06 130.16 447.46 130.16C447.286 130.16 447.1 130.14 446.9 130.1C446.713 130.073 446.506 130.033 446.28 129.98ZM460.852 130V119.4H462.772V123.74H465.972V125.52H462.772V130H460.852ZM470.232 130.12C469.192 130.12 468.266 129.887 467.452 129.42C466.652 128.953 466.019 128.313 465.552 127.5C465.086 126.673 464.852 125.74 464.852 124.7C464.852 123.647 465.086 122.713 465.552 121.9C466.019 121.073 466.652 120.433 467.452 119.98C468.266 119.527 469.192 119.3 470.232 119.3C471.259 119.3 472.179 119.527 472.992 119.98C473.806 120.433 474.446 121.073 474.912 121.9C475.379 122.713 475.612 123.647 475.612 124.7C475.612 125.753 475.379 126.687 474.912 127.5C474.446 128.313 473.806 128.953 472.992 129.42C472.179 129.887 471.259 130.12 470.232 130.12ZM470.232 128.44C470.899 128.44 471.492 128.287 472.012 127.98C472.532 127.66 472.946 127.227 473.252 126.68C473.559 126.12 473.712 125.46 473.712 124.7C473.712 123.94 473.559 123.287 473.252 122.74C472.946 122.18 472.532 121.747 472.012 121.44C471.492 121.133 470.899 120.98 470.232 120.98C469.579 120.98 468.986 121.133 468.452 121.44C467.932 121.747 467.519 122.18 467.212 122.74C466.906 123.287 466.752 123.94 466.752 124.7C466.752 125.46 466.906 126.12 467.212 126.68C467.519 127.227 467.932 127.66 468.452 127.98C468.986 128.287 469.579 128.44 470.232 128.44ZM485.534 129.1V121.08H480.934L480.834 123.12C480.807 123.787 480.76 124.433 480.694 125.06C480.64 125.673 480.547 126.24 480.414 126.76C480.294 127.28 480.114 127.707 479.874 128.04C479.634 128.373 479.314 128.58 478.914 128.66L477.014 128.32C477.427 128.333 477.76 128.2 478.014 127.92C478.267 127.627 478.46 127.227 478.594 126.72C478.74 126.213 478.847 125.64 478.914 125C478.98 124.347 479.034 123.673 479.074 122.98L479.234 119.4H487.454V129.1H485.534ZM476.594 132.46V128.32H489.074V132.46H487.274V130H478.414V132.46H476.594ZM496.295 130.12C495.162 130.12 494.162 129.887 493.295 129.42C492.442 128.953 491.775 128.313 491.295 127.5C490.828 126.687 490.595 125.753 490.595 124.7C490.595 123.647 490.822 122.713 491.275 121.9C491.742 121.087 492.375 120.453 493.175 120C493.988 119.533 494.902 119.3 495.915 119.3C496.942 119.3 497.848 119.527 498.635 119.98C499.422 120.433 500.035 121.073 500.475 121.9C500.928 122.713 501.155 123.667 501.155 124.76C501.155 124.84 501.148 124.933 501.135 125.04C501.135 125.147 501.128 125.247 501.115 125.34H492.095V123.96H500.115L499.335 124.44C499.348 123.76 499.208 123.153 498.915 122.62C498.622 122.087 498.215 121.673 497.695 121.38C497.188 121.073 496.595 120.92 495.915 120.92C495.248 120.92 494.655 121.073 494.135 121.38C493.615 121.673 493.208 122.093 492.915 122.64C492.622 123.173 492.475 123.787 492.475 124.48V124.8C492.475 125.507 492.635 126.14 492.955 126.7C493.288 127.247 493.748 127.673 494.335 127.98C494.922 128.287 495.595 128.44 496.355 128.44C496.982 128.44 497.548 128.333 498.055 128.12C498.575 127.907 499.028 127.587 499.415 127.16L500.475 128.4C499.995 128.96 499.395 129.387 498.675 129.68C497.968 129.973 497.175 130.12 496.295 130.12ZM504.133 130V119.4H506.053V123.9H512.093V119.4H514.013V130H512.093V125.56H506.053V130H504.133ZM517.747 130V119.4H519.667V127.12L526.167 119.4H527.907V130H525.987V122.28L519.507 130H517.747ZM536.353 130.12C535.22 130.12 534.22 129.887 533.353 129.42C532.5 128.953 531.833 128.313 531.353 127.5C530.887 126.687 530.653 125.753 530.653 124.7C530.653 123.647 530.88 122.713 531.333 121.9C531.8 121.087 532.433 120.453 533.233 120C534.047 119.533 534.96 119.3 535.973 119.3C537 119.3 537.907 119.527 538.693 119.98C539.48 120.433 540.093 121.073 540.533 121.9C540.987 122.713 541.213 123.667 541.213 124.76C541.213 124.84 541.207 124.933 541.193 125.04C541.193 125.147 541.187 125.247 541.173 125.34H532.153V123.96H540.173L539.393 124.44C539.407 123.76 539.267 123.153 538.973 122.62C538.68 122.087 538.273 121.673 537.753 121.38C537.247 121.073 536.653 120.92 535.973 120.92C535.307 120.92 534.713 121.073 534.193 121.38C533.673 121.673 533.267 122.093 532.973 122.64C532.68 123.173 532.533 123.787 532.533 124.48V124.8C532.533 125.507 532.693 126.14 533.013 126.7C533.347 127.247 533.807 127.673 534.393 127.98C534.98 128.287 535.653 128.44 536.413 128.44C537.04 128.44 537.607 128.333 538.113 128.12C538.633 127.907 539.087 127.587 539.473 127.16L540.533 128.4C540.053 128.96 539.453 129.387 538.733 129.68C538.027 129.973 537.233 130.12 536.353 130.12ZM428.034 153.1V145.08H423.434L423.334 147.12C423.307 147.787 423.26 148.433 423.194 149.06C423.14 149.673 423.047 150.24 422.914 150.76C422.794 151.28 422.614 151.707 422.374 152.04C422.134 152.373 421.814 152.58 421.414 152.66L419.514 152.32C419.927 152.333 420.26 152.2 420.514 151.92C420.767 151.627 420.96 151.227 421.094 150.72C421.24 150.213 421.347 149.64 421.414 149C421.48 148.347 421.534 147.673 421.574 146.98L421.734 143.4H429.954V153.1H428.034ZM419.094 156.46V152.32H431.574V156.46H429.774V154H420.914V156.46H419.094ZM438.795 154.12C437.662 154.12 436.662 153.887 435.795 153.42C434.942 152.953 434.275 152.313 433.795 151.5C433.328 150.687 433.095 149.753 433.095 148.7C433.095 147.647 433.322 146.713 433.775 145.9C434.242 145.087 434.875 144.453 435.675 144C436.488 143.533 437.402 143.3 438.415 143.3C439.442 143.3 440.348 143.527 441.135 143.98C441.922 144.433 442.535 145.073 442.975 145.9C443.428 146.713 443.655 147.667 443.655 148.76C443.655 148.84 443.648 148.933 443.635 149.04C443.635 149.147 443.628 149.247 443.615 149.34H434.595V147.96H442.615L441.835 148.44C441.848 147.76 441.708 147.153 441.415 146.62C441.122 146.087 440.715 145.673 440.195 145.38C439.688 145.073 439.095 144.92 438.415 144.92C437.748 144.92 437.155 145.073 436.635 145.38C436.115 145.673 435.708 146.093 435.415 146.64C435.122 147.173 434.975 147.787 434.975 148.48V148.8C434.975 149.507 435.135 150.14 435.455 150.7C435.788 151.247 436.248 151.673 436.835 151.98C437.422 152.287 438.095 152.44 438.855 152.44C439.482 152.44 440.048 152.333 440.555 152.12C441.075 151.907 441.528 151.587 441.915 151.16L442.975 152.4C442.495 152.96 441.895 153.387 441.175 153.68C440.468 153.973 439.675 154.12 438.795 154.12ZM453.698 153.1V145.08H449.098L448.998 147.12C448.971 147.787 448.924 148.433 448.858 149.06C448.804 149.673 448.711 150.24 448.578 150.76C448.458 151.28 448.278 151.707 448.038 152.04C447.798 152.373 447.478 152.58 447.078 152.66L445.178 152.32C445.591 152.333 445.924 152.2 446.178 151.92C446.431 151.627 446.624 151.227 446.758 150.72C446.904 150.213 447.011 149.64 447.078 149C447.144 148.347 447.198 147.673 447.238 146.98L447.398 143.4H455.618V153.1H453.698ZM444.758 156.46V152.32H457.238V156.46H455.438V154H446.578V156.46H444.758ZM457.979 153.98L458.099 152.36C458.192 152.373 458.279 152.387 458.359 152.4C458.439 152.413 458.512 152.42 458.579 152.42C459.006 152.42 459.339 152.273 459.579 151.98C459.832 151.687 460.019 151.3 460.139 150.82C460.259 150.327 460.346 149.773 460.399 149.16C460.452 148.547 460.492 147.933 460.519 147.32L460.699 143.4H468.839V154H466.919V144.52L467.379 145.08H461.939L462.379 144.5L462.239 147.44C462.199 148.373 462.126 149.247 462.019 150.06C461.912 150.873 461.746 151.587 461.519 152.2C461.306 152.813 461.006 153.293 460.619 153.64C460.246 153.987 459.759 154.16 459.159 154.16C458.986 154.16 458.799 154.14 458.599 154.1C458.412 154.073 458.206 154.033 457.979 153.98ZM479.051 154V151.76L478.951 151.34V147.52C478.951 146.707 478.711 146.08 478.231 145.64C477.765 145.187 477.058 144.96 476.111 144.96C475.485 144.96 474.871 145.067 474.271 145.28C473.671 145.48 473.165 145.753 472.751 146.1L471.951 144.66C472.498 144.22 473.151 143.887 473.911 143.66C474.685 143.42 475.491 143.3 476.331 143.3C477.785 143.3 478.905 143.653 479.691 144.36C480.478 145.067 480.871 146.147 480.871 147.6V154H479.051ZM475.571 154.12C474.785 154.12 474.091 153.987 473.491 153.72C472.905 153.453 472.451 153.087 472.131 152.62C471.811 152.14 471.651 151.6 471.651 151C471.651 150.427 471.785 149.907 472.051 149.44C472.331 148.973 472.778 148.6 473.391 148.32C474.018 148.04 474.858 147.9 475.911 147.9H479.271V149.28H475.991C475.031 149.28 474.385 149.44 474.051 149.76C473.718 150.08 473.551 150.467 473.551 150.92C473.551 151.44 473.758 151.86 474.171 152.18C474.585 152.487 475.158 152.64 475.891 152.64C476.611 152.64 477.238 152.48 477.771 152.16C478.318 151.84 478.711 151.373 478.951 150.76L479.331 152.08C479.078 152.707 478.631 153.207 477.991 153.58C477.351 153.94 476.545 154.12 475.571 154.12ZM484.329 154V143.4H486.249V151.12L492.749 143.4H494.489V154H492.569V146.28L486.089 154H484.329ZM489.289 142.02C488.315 142.02 487.549 141.787 486.989 141.32C486.442 140.84 486.162 140.153 486.149 139.26H487.449C487.462 139.767 487.629 140.167 487.949 140.46C488.282 140.753 488.722 140.9 489.269 140.9C489.815 140.9 490.255 140.753 490.589 140.46C490.922 140.167 491.095 139.767 491.109 139.26H492.449C492.435 140.153 492.149 140.84 491.589 141.32C491.029 141.787 490.262 142.02 489.289 142.02ZM498.215 154V143.4H500.135V147.9H506.175V143.4H508.095V154H506.175V149.56H500.135V154H498.215ZM516.369 154.12C515.302 154.12 514.355 153.887 513.529 153.42C512.702 152.953 512.049 152.313 511.569 151.5C511.089 150.673 510.849 149.74 510.849 148.7C510.849 147.647 511.089 146.713 511.569 145.9C512.049 145.087 512.702 144.453 513.529 144C514.355 143.533 515.302 143.3 516.369 143.3C517.422 143.3 518.362 143.533 519.189 144C520.029 144.453 520.682 145.087 521.149 145.9C521.629 146.7 521.869 147.633 521.869 148.7C521.869 149.753 521.629 150.687 521.149 151.5C520.682 152.313 520.029 152.953 519.189 153.42C518.362 153.887 517.422 154.12 516.369 154.12ZM516.369 152.44C517.049 152.44 517.655 152.287 518.189 151.98C518.735 151.673 519.162 151.24 519.469 150.68C519.775 150.107 519.929 149.447 519.929 148.7C519.929 147.94 519.775 147.287 519.469 146.74C519.162 146.18 518.735 145.747 518.189 145.44C517.655 145.133 517.049 144.98 516.369 144.98C515.689 144.98 515.082 145.133 514.549 145.44C514.015 145.747 513.589 146.18 513.269 146.74C512.949 147.287 512.789 147.94 512.789 148.7C512.789 149.447 512.949 150.107 513.269 150.68C513.589 151.24 514.015 151.673 514.549 151.98C515.082 152.287 515.689 152.44 516.369 152.44ZM524.641 154V143.4H529.561C530.801 143.4 531.775 143.64 532.481 144.12C533.201 144.587 533.561 145.253 533.561 146.12C533.561 146.987 533.221 147.66 532.541 148.14C531.875 148.607 530.988 148.84 529.881 148.84L530.181 148.32C531.448 148.32 532.388 148.553 533.001 149.02C533.615 149.487 533.921 150.173 533.921 151.08C533.921 152 533.575 152.72 532.881 153.24C532.201 153.747 531.155 154 529.741 154H524.641ZM526.521 152.52H529.601C530.401 152.52 531.001 152.4 531.401 152.16C531.801 151.907 532.001 151.507 532.001 150.96C532.001 150.4 531.815 149.993 531.441 149.74C531.081 149.473 530.508 149.34 529.721 149.34H526.521V152.52ZM526.521 147.96H529.401C530.135 147.96 530.688 147.827 531.061 147.56C531.448 147.28 531.641 146.893 531.641 146.4C531.641 145.893 531.448 145.513 531.061 145.26C530.688 145.007 530.135 144.88 529.401 144.88H526.521V147.96Z" fill="black"/>
<defs>
<linearGradient id="paint0_linear_64_6" x1="100" y1="4.49988" x2="77" y2="99.9999" gradientUnits="userSpaceOnUse">
<stop stop-color="#6F1FBF"/>
<stop offset="1" stop-color="#DE6D67"/>
</linearGradient>
<linearGradient id="paint1_linear_64_6" x1="276" y1="-0.00012207" x2="276" y2="128" gradientUnits="userSpaceOnUse">
<stop stop-color="#E8664C"/>
<stop offset="1" stop-color="#A44BA2" stop-opacity="0.3"/>
</linearGradient>
<linearGradient id="paint2_linear_64_6" x1="427" y1="40.4999" x2="527" y2="68.9999" gradientUnits="userSpaceOnUse">
<stop stop-color="#6F1FBF"/>
<stop offset="1" stop-color="#A44BA2" stop-opacity="0.6"/>
</linearGradient>
</defs>
</svg>
